<svg width="583" height="240" viewBox="0 0 583 240" fill="none" xmlns="http://www.w3.org/2000/svg">
<g opacity="0.1">
<rect width="1.96296" height="240" fill="#B9C1D9"/>
<rect x="72.6304" width="1.96296" height="240" fill="#B9C1D9"/>
<rect x="145.261" width="1.96296" height="240" fill="#B9C1D9"/>
<rect x="217.888" width="1.96296" height="240" fill="#B9C1D9"/>
<rect x="290.52" width="1.96296" height="240" fill="#B9C1D9"/>
<rect x="363.149" width="1.96296" height="240" fill="#B9C1D9"/>
<rect x="435.78" width="1.96296" height="240" fill="#B9C1D9"/>
<rect x="508.408" width="1.96296" height="240" fill="#B9C1D9"/>
<rect x="581.035" y="238.709" width="1.29034" height="579.074" transform="rotate(90 581.035 238.709)" fill="#B9C1D9"/>
<rect x="581.035" y="190.967" width="1.29034" height="579.074" transform="rotate(90 581.035 190.967)" fill="#B9C1D9"/>
<rect x="581.035" y="143.226" width="1.29034" height="579.074" transform="rotate(90 581.035 143.226)" fill="#B9C1D9"/>
<rect x="581.035" y="95.4845" width="1.29034" height="579.074" transform="rotate(90 581.035 95.4845)" fill="#B9C1D9"/>
<rect x="581.035" y="48.0001" width="1.29034" height="579.074" transform="rotate(90 581.035 48.0001)" fill="#B9C1D9"/>
<rect x="581.036" width="1.29034" height="579.074" transform="rotate(90 581.036 0)" fill="#B9C1D9"/>
<rect x="581.036" width="1.96296" height="240" fill="#B9C1D9"/>
</g>
</svg>
