<svg width="552" height="176" viewBox="0 0 552 176" fill="none" xmlns="http://www.w3.org/2000/svg">
<rect x="416" y="47" width="8" height="54" rx="4" fill="#6EDCB5"/>
<rect x="419" y="39" width="2" height="80" rx="1" fill="#6EDCB5"/>
<rect x="480" y="96" width="8" height="54" rx="4" fill="#FF325F"/>
<rect x="483" y="88" width="2" height="80" rx="1" fill="#FF325F"/>
<rect x="304" y="43" width="8" height="54" rx="4" fill="#FF325F"/>
<rect x="307" y="35" width="2" height="80" rx="1" fill="#FF325F"/>
<rect x="400" y="34" width="8" height="54" rx="4" fill="#6EDCB5"/>
<rect x="403" y="26" width="2" height="80" rx="1" fill="#6EDCB5"/>
<rect x="464" y="83" width="8" height="54" rx="4" fill="#6EDCB5"/>
<rect x="467" y="75" width="2" height="80" rx="1" fill="#6EDCB5"/>
<rect x="96" y="59" width="8" height="54" rx="4" fill="#FF325F"/>
<rect x="99" y="51" width="2" height="80" rx="1" fill="#FF325F"/>
<rect x="64" y="40" width="8" height="54" rx="4" fill="#6EDCB5"/>
<rect x="67" y="32" width="2" height="80" rx="1" fill="#6EDCB5"/>
<rect x="80" y="25" width="8" height="54" rx="4" fill="#6EDCB5"/>
<rect x="83" y="17" width="2" height="124" rx="1" fill="#6EDCB5"/>
<rect x="16" y="61" width="8" height="54" rx="4" fill="#FF325F"/>
<rect x="19" y="53" width="2" height="103" rx="1" fill="#FF325F"/>
<rect x="192" y="80" width="8" height="54" rx="4" fill="#6EDCB5"/>
<rect x="195" y="72" width="2" height="80" rx="1" fill="#6EDCB5"/>
<rect x="256" y="45" width="8" height="40" rx="4" fill="#6EDCB5"/>
<rect x="259" y="25" width="2" height="80" rx="1" fill="#6EDCB5"/>
<rect x="240" y="60" width="8" height="32" rx="4" fill="#6EDCB5"/>
<rect x="243" width="2" height="120" rx="1" fill="#6EDCB5"/>
<rect x="336" y="54" width="8" height="27" rx="4" fill="#6EDCB5"/>
<rect x="339" y="50" width="2" height="72" rx="1" fill="#6EDCB5"/>
<rect x="432" y="45" width="8" height="27" rx="4" fill="#FF325F"/>
<rect x="435" y="41" width="2" height="72" rx="1" fill="#FF325F"/>
<rect x="496" y="94" width="8" height="27" rx="4" fill="#6EDCB5"/>
<rect x="499" y="90" width="2" height="72" rx="1" fill="#6EDCB5"/>
<rect x="352" y="57" width="8" height="27" rx="4" fill="#FF325F"/>
<rect x="355" y="53" width="2" height="55" rx="1" fill="#FF325F"/>
<rect x="448" y="48" width="8" height="27" rx="4" fill="#6EDCB5"/>
<rect x="451" y="44" width="2" height="55" rx="1" fill="#6EDCB5"/>
<rect x="512" y="97" width="8" height="27" rx="4" fill="#FF325F"/>
<rect x="515" y="93" width="2" height="55" rx="1" fill="#FF325F"/>
<rect x="176" y="88" width="8" height="27" rx="4" fill="#6EDCB5"/>
<rect x="179" y="84" width="2" height="55" rx="1" fill="#6EDCB5"/>
<rect x="288" y="37" width="8" height="27" rx="4" fill="#6EDCB5"/>
<rect x="291" y="33" width="2" height="55" rx="1" fill="#6EDCB5"/>
<rect x="48" y="88" width="8" height="27" rx="4" fill="#FF325F"/>
<rect x="51" y="67" width="2" height="55" rx="1" fill="#FF325F"/>
<rect x="368" y="99" width="8" height="36" rx="4" fill="#6EDCB5"/>
<rect x="371" y="83" width="2" height="55" rx="1" fill="#6EDCB5"/>
<rect x="384" y="97" width="8" height="20" rx="4" fill="#6EDCB5"/>
<rect x="387" y="90" width="2" height="46" rx="1" fill="#6EDCB5"/>
<rect x="320" y="80" width="8" height="20" rx="4" fill="#6EDCB5"/>
<rect x="323" y="73" width="2" height="46" rx="1" fill="#6EDCB5"/>
<rect x="528" y="69" width="8" height="20" rx="4" fill="#6EDCB5"/>
<rect x="531" y="62" width="2" height="46" rx="1" fill="#6EDCB5"/>
<rect x="544" y="63" width="8" height="20" rx="4" fill="#6EDCB5"/>
<rect x="547" y="40" width="2" height="46" rx="1" fill="#6EDCB5"/>
<rect x="112" y="72" width="8" height="20" rx="4" fill="#6EDCB5"/>
<rect x="115" y="65" width="2" height="46" rx="1" fill="#6EDCB5"/>
<rect x="272" y="38" width="8" height="20" rx="4" fill="#6EDCB5"/>
<rect x="275" y="31" width="2" height="46" rx="1" fill="#6EDCB5"/>
<rect x="224" y="56" width="8" height="16" rx="4" fill="#FF325F"/>
<rect x="227" y="50" width="2" height="55" rx="1" fill="#FF325F"/>
<rect x="160" y="100" width="8" height="16" rx="4" fill="#FF325F"/>
<rect x="163" y="94" width="2" height="55" rx="1" fill="#FF325F"/>
<rect x="144" y="111" width="8" height="16" rx="4" fill="#FF325F"/>
<rect x="147" y="102" width="2" height="70" rx="1" fill="#FF325F"/>
<rect y="100" width="8" height="16" rx="4" fill="#6EDCB5"/>
<rect x="3" y="78" width="2" height="98" rx="1" fill="#6EDCB5"/>
<rect x="208" y="64" width="8" height="16" rx="4" fill="#FF325F"/>
<rect x="211" y="58" width="2" height="40" rx="1" fill="#FF325F"/>
<rect x="32" y="66" width="8" height="16" rx="4" fill="#6EDCB5"/>
<rect x="35" y="60" width="2" height="40" rx="1" fill="#6EDCB5"/>
<rect x="128" y="117" width="8" height="16" rx="4" fill="#6EDCB5"/>
<rect x="131" y="111" width="2" height="40" rx="1" fill="#6EDCB5"/>
</svg>
