<svg width="81" height="80" viewBox="0 0 81 80" fill="none" xmlns="http://www.w3.org/2000/svg">
<ellipse cx="40.0333" cy="40" rx="40.0333" ry="40" fill="white" fill-opacity="0.1"/>
<path d="M54.045 55H27.0225C26.4917 55 25.9825 54.7893 25.6071 54.4142C25.2318 54.0391 25.0209 53.5304 25.0209 53V26C25.0209 25.7348 25.1263 25.4804 25.314 25.2929C25.5017 25.1054 25.7563 25 26.0217 25C26.2871 25 26.5417 25.1054 26.7294 25.2929C26.9171 25.4804 27.0225 25.7348 27.0225 26V53H54.045C54.3105 53 54.565 53.1054 54.7527 53.2929C54.9404 53.4804 55.0459 53.7348 55.0459 54C55.0459 54.2652 54.9404 54.5196 54.7527 54.7071C54.565 54.8946 54.3105 55 54.045 55Z" fill="#3671E9"/>
<path d="M33.7781 51H31.276C30.6788 51 30.106 50.7629 29.6837 50.341C29.2614 49.919 29.0242 49.3467 29.0242 48.75V39.25C29.0242 38.6533 29.2614 38.081 29.6837 37.659C30.106 37.2371 30.6788 37 31.276 37H33.7781C34.3754 37 34.9481 37.2371 35.3704 37.659C35.7928 38.081 36.03 38.6533 36.03 39.25V48.75C36.03 49.3467 35.7928 49.919 35.3704 50.341C34.9481 50.7629 34.3754 51 33.7781 51Z" fill="#3671E9"/>
<path d="M42.7856 51H40.2836C39.6863 51 39.1135 50.7629 38.6912 50.341C38.2689 49.919 38.0317 49.3467 38.0317 48.75V36.25C38.0317 35.6533 38.2689 35.081 38.6912 34.659C39.1135 34.2371 39.6863 34 40.2836 34H42.7856C43.3829 34 43.9556 34.2371 44.378 34.659C44.8003 35.081 45.0375 35.6533 45.0375 36.25V48.75C45.0375 49.3467 44.8003 49.919 44.378 50.341C43.9556 50.7629 43.3829 51 42.7856 51V51Z" fill="#3671E9"/>
<path d="M51.7706 51H49.2685C48.6712 51 48.0985 50.7629 47.6762 50.341C47.2539 49.919 47.0166 49.3467 47.0166 48.75V32.25C47.0166 31.6533 47.2539 31.081 47.6762 30.659C48.0985 30.2371 48.6712 30 49.2685 30H51.7706C52.3678 30 52.9406 30.2371 53.3629 30.659C53.7852 31.081 54.0224 31.6533 54.0224 32.25V48.75C54.0224 49.3467 53.7852 49.919 53.3629 50.341C52.9406 50.7629 52.3678 51 51.7706 51Z" fill="#3671E9"/>
</svg>
