<svg width="81" height="80" viewBox="0 0 81 80" fill="none" xmlns="http://www.w3.org/2000/svg">
<ellipse opacity="0.1" cx="40.755" cy="40" rx="40.0333" ry="40" fill="white"/>
<path d="M53.1397 27.6364C51.5162 25.9982 49.5848 24.6967 47.4564 23.8066C45.328 22.9166 43.0446 22.4554 40.7373 22.4498C38.43 22.4441 36.1443 22.894 34.0116 23.7736C31.8788 24.6532 29.941 25.9452 28.3095 27.5753C26.678 29.2055 25.3849 31.1417 24.5046 33.2727C23.6242 35.4036 23.174 37.6874 23.1796 39.9928C23.1853 42.2982 23.6468 44.5797 24.5377 46.7063C25.4285 48.8329 26.7311 50.7627 28.3706 52.3848C29.9941 54.023 31.9255 55.3245 34.0539 56.2146C36.1823 57.1047 38.4657 57.5658 40.773 57.5715C43.0803 57.5772 45.366 57.1273 47.4987 56.2477C49.6315 55.3681 51.5693 54.0761 53.2008 52.4459C54.8323 50.8158 56.1254 48.8796 57.0057 46.7486C57.886 44.6176 58.3363 42.3338 58.3306 40.0285C58.325 37.7231 57.8634 35.4416 56.9726 33.3149C56.0818 31.1883 54.7792 29.2585 53.1397 27.6364V27.6364ZM25.7426 40.0106C25.7421 38.6831 25.9182 37.3613 26.2665 36.0802C26.8404 37.3145 27.6739 38.3809 28.2408 39.6473C28.9735 41.2755 30.9407 40.8239 31.8094 42.2505C32.5804 43.5169 31.757 45.1184 32.3341 46.4434C32.7532 47.4052 33.7415 47.6153 34.4233 48.3184C35.12 49.0278 35.1051 49.9997 35.2115 50.9247C35.3315 52.0115 35.5261 53.0888 35.794 54.1489C35.794 54.1567 35.794 54.1653 35.8002 54.1731C29.9493 52.12 25.7426 46.5473 25.7426 40.0106ZM40.7551 55.0106C39.9167 55.0104 39.0798 54.9403 38.2531 54.8013C38.2617 54.5895 38.2656 54.3919 38.2867 54.2544C38.4767 53.0122 39.0991 51.7973 39.9388 50.8677C40.7684 49.9505 41.9053 49.3302 42.6059 48.2895C43.2924 47.2739 43.498 45.9067 43.215 44.72C42.7982 42.9669 40.4142 42.3817 39.1288 41.4309C38.3899 40.8841 37.7323 40.0387 36.762 39.97C36.3147 39.9387 35.9402 40.0348 35.4969 39.9208C35.0903 39.8153 34.7713 39.5966 34.3381 39.6536C33.5288 39.7598 33.0182 40.6239 32.1488 40.5067C31.3238 40.3966 30.4739 39.4317 30.2863 38.6466C30.0454 37.6372 30.8445 37.3098 31.7007 37.22C32.0581 37.1825 32.4592 37.1419 32.8024 37.2731C33.2544 37.4403 33.4678 37.8825 33.8736 38.1059C34.6344 38.5231 34.7885 37.8567 34.6719 37.1817C34.4976 36.1708 34.2943 35.7591 35.1966 35.063C35.8221 34.5833 36.3569 34.2364 36.2569 33.3747C36.1974 32.8684 35.9199 32.6395 36.1787 32.1356C36.3749 31.752 36.9137 31.4059 37.2647 31.177C38.171 30.5864 41.1469 30.6302 39.931 28.977C39.5737 28.4919 38.9145 27.6247 38.289 27.5059C37.5071 27.3583 37.16 28.2302 36.615 28.6145C36.052 29.0122 34.9558 29.4637 34.392 28.8489C33.6336 28.0216 34.8948 27.7505 35.1739 27.1723C35.3029 26.9028 35.1739 26.5286 34.9566 26.1762C35.2386 26.0575 35.5253 25.9473 35.8167 25.8458C35.9993 25.9805 36.2159 26.0617 36.4422 26.0802C36.9653 26.1145 37.4586 25.8317 37.9153 26.188C38.4219 26.5786 38.7871 27.0723 39.4595 27.1942C40.1101 27.3122 40.7989 26.9333 40.96 26.2677C41.0577 25.863 40.96 25.4356 40.8662 25.0177C43.7905 25.0345 46.6454 25.9095 49.0761 27.5341C48.9198 27.4747 48.7329 27.4817 48.5022 27.5887C48.0276 27.8091 47.3552 28.37 47.2997 28.9262C47.2363 29.5575 48.1683 29.6466 48.6109 29.6466C49.2755 29.6466 49.9487 29.3497 49.7345 28.5825C49.6414 28.2497 49.5148 27.9036 49.3107 27.6942C49.8013 28.0343 50.2712 28.4032 50.7181 28.7989C50.7111 28.8059 50.704 28.8122 50.697 28.82C50.2466 29.2887 49.7235 29.6598 49.4155 30.2302C49.1981 30.6317 48.9534 30.8223 48.5132 30.9262C48.2708 30.9833 47.994 31.0044 47.7907 31.1669C47.2246 31.6122 47.5467 32.6825 48.0831 33.0036C48.761 33.4091 49.7665 33.2184 50.2779 32.6395C50.6775 32.1864 50.9128 31.3997 51.6314 31.4005C51.9477 31.3998 52.2516 31.5236 52.4774 31.745C52.7745 32.0528 52.7159 32.3403 52.7792 32.7247C52.891 33.4075 53.4939 33.0372 53.8606 32.6927C54.1279 33.168 54.3691 33.6575 54.5831 34.1591C54.1796 34.7395 53.859 35.3723 52.8887 34.6958C52.3077 34.2903 51.9504 33.702 51.2209 33.5192C50.5836 33.363 49.9307 33.5255 49.3013 33.6341C48.5859 33.7583 47.7375 33.813 47.1949 34.3544C46.6702 34.8762 46.3926 35.5747 45.8344 36.0989C44.7546 37.1145 44.2987 38.2231 44.9977 39.6591C45.6702 41.0395 47.0768 41.7887 48.5945 41.6903C50.0856 41.5911 51.6345 40.727 51.5915 42.8919C51.5759 43.6583 51.7362 44.1888 51.9715 44.9005C52.1897 45.5567 52.1748 46.1927 52.2248 46.87C52.2724 47.6632 52.3965 48.4499 52.5955 49.2192C51.194 51.0222 49.3986 52.4812 47.3465 53.485C45.2945 54.4887 43.0399 55.0105 40.7551 55.0106Z" fill="#3671E9"/>
</svg>
