<svg width="81" height="80" viewBox="0 0 81 80" fill="none" xmlns="http://www.w3.org/2000/svg">
<ellipse opacity="0.1" cx="40.3942" cy="40" rx="40.0333" ry="40" fill="white"/>
<path d="M46.3867 25.0453C44.8651 23.4039 42.7399 22.5 40.3942 22.5C38.036 22.5 35.9037 23.3984 34.3892 25.0297C32.8582 26.6789 32.1123 28.9203 32.2874 31.3406C32.6346 36.1156 36.2712 40 40.3942 40C44.5171 40 48.1475 36.1164 48.5002 31.3422C48.6776 28.9437 47.927 26.707 46.3867 25.0453Z" fill="#3671E9"/>
<path d="M54.1555 57.5H26.6326C26.2724 57.5047 25.9156 57.4291 25.5883 57.2786C25.261 57.1282 24.9713 56.9068 24.7404 56.6305C24.2322 56.0234 24.0273 55.1945 24.179 54.3562C24.8389 50.6984 26.8985 47.6258 30.1355 45.4687C33.0114 43.5539 36.6542 42.5 40.3941 42.5C44.1339 42.5 47.7768 43.5547 50.6526 45.4687C53.8897 47.625 55.9492 50.6977 56.6091 54.3555C56.7608 55.1937 56.556 56.0227 56.0477 56.6297C55.8169 56.9062 55.5273 57.1277 55.2 57.2783C54.8726 57.4288 54.5158 57.5046 54.1555 57.5V57.5Z" fill="#3671E9"/>
</svg>
